<?xml version="1.0" encoding="UTF-8"?>
<svg xmlns="http://www.w3.org/2000/svg" viewBox="0 0 200 350" width="200" height="350">
  <rect x="0" y="0" width="200" height="350" fill="none"/>
  <g id="guides" style="display:none"><line x1="0" y1="35" x2="200" y2="35" stroke="#00a" stroke-width="0.5" stroke-dasharray="3,2" /><text x="4" y="33" font-size="8" fill="#00a">HEAD_TOP</text><line x1="0" y1="60" x2="200" y2="60" stroke="#00a" stroke-width="0.5" stroke-dasharray="3,2" /><text x="4" y="58" font-size="8" fill="#00a">EYE_LINE</text><line x1="0" y1="85" x2="200" y2="85" stroke="#00a" stroke-width="0.5" stroke-dasharray="3,2" /><text x="4" y="83" font-size="8" fill="#00a">CHIN</text><line x1="0" y1="95" x2="200" y2="95" stroke="#00a" stroke-width="0.5" stroke-dasharray="3,2" /><text x="4" y="93" font-size="8" fill="#00a">NECK</text><line x1="0" y1="110" x2="200" y2="110" stroke="#00a" stroke-width="0.5" stroke-dasharray="3,2" /><text x="4" y="108" font-size="8" fill="#00a">SHOULDERS</text><line x1="0" y1="140" x2="200" y2="140" stroke="#00a" stroke-width="0.5" stroke-dasharray="3,2" /><text x="4" y="138" font-size="8" fill="#00a">CHEST</text><line x1="0" y1="200" x2="200" y2="200" stroke="#00a" stroke-width="0.5" stroke-dasharray="3,2" /><text x="4" y="198" font-size="8" fill="#00a">WAIST</text><line x1="0" y1="210" x2="200" y2="210" stroke="#00a" stroke-width="0.5" stroke-dasharray="3,2" /><text x="4" y="208" font-size="8" fill="#00a">HIPS</text><line x1="0" y1="280" x2="200" y2="280" stroke="#00a" stroke-width="0.5" stroke-dasharray="3,2" /><text x="4" y="278" font-size="8" fill="#00a">KNEES</text><line x1="0" y1="330" x2="200" y2="330" stroke="#00a" stroke-width="0.5" stroke-dasharray="3,2" /><text x="4" y="328" font-size="8" fill="#00a">ANKLES</text><line x1="0" y1="340" x2="200" y2="340" stroke="#00a" stroke-width="0.5" stroke-dasharray="3,2" /><text x="4" y="338" font-size="8" fill="#00a">GROUND</text></g>
  <g id="base_figure" stroke="#333" stroke-width="4" stroke-linecap="round" fill="none">
    <!-- Head -->
    <circle cx="100" cy="60" r="25" fill="none"/>
    <!-- Torso -->
    <line x1="100" y1="95" x2="100" y2="210"/>
    <!-- Arms -->
    <line x1="100" y1="120" x2="60" y2="160"/>
    <line x1="100" y1="120" x2="140" y2="160"/>
    <!-- Legs -->
    <line x1="100" y1="210" x2="75" y2="330"/>
    <line x1="100" y1="210" x2="125" y2="330"/>
    <!-- Feet baseline -->
    <line x1="40" y1="340" x2="160" y2="340" stroke="#888" stroke-width="2" stroke-linecap="butt"/>
  </g>
</svg>
