<?xml version="1.0" encoding="UTF-8"?>
<svg xmlns="http://www.w3.org/2000/svg" viewBox="0 0 342 450" width="342" height="450">

  <g id="robot_boots" stroke="#263238" stroke-width="2" fill="#90a4ae">
    <!-- Left boot -->
    <path d="M 107 370 L 131 370 L 131 408
             Q 121 418 99 418 L 85 418
             Q 93 402 107 388 Z" />
    <!-- Right boot -->
    <path d="M 223 370 L 247 370 L 247 408
             Q 237 418 215 418 L 201 418
             Q 209 402 223 388 Z" />
    <!-- Treads -->
    <g stroke="#37474f">
      <line x1="85" y1="418" x2="89" y2="412"/><line x1="91" y1="418" x2="95" y2="412"/><line x1="97" y1="418" x2="101" y2="412"/><line x1="103" y1="418" x2="107" y2="412"/><line x1="109" y1="418" x2="113" y2="412"/><line x1="115" y1="418" x2="119" y2="412"/><line x1="121" y1="418" x2="125" y2="412"/><line x1="127" y1="418" x2="131" y2="412"/><line x1="133" y1="418" x2="137" y2="412"/><line x1="139" y1="418" x2="143" y2="412"/>
      <line x1="201" y1="418" x2="205" y2="412"/><line x1="207" y1="418" x2="211" y2="412"/><line x1="213" y1="418" x2="217" y2="412"/><line x1="219" y1="418" x2="223" y2="412"/><line x1="225" y1="418" x2="229" y2="412"/><line x1="231" y1="418" x2="235" y2="412"/><line x1="237" y1="418" x2="241" y2="412"/><line x1="243" y1="418" x2="247" y2="412"/><line x1="249" y1="418" x2="253" y2="412"/><line x1="255" y1="418" x2="259" y2="412"/>
    </g>
    <!-- Toe caps -->
    <rect x="127" y="376" width="10" height="10" fill="#cfd8dc" stroke="#607d8b"/>
    <rect x="217" y="376" width="10" height="10" fill="#cfd8dc" stroke="#607d8b"/>
  </g>

</svg>