<?xml version="1.0" encoding="UTF-8"?>
<svg xmlns="http://www.w3.org/2000/svg" viewBox="0 0 342 450" width="342" height="450">

  <g stroke="#263238" stroke-width="2" fill="#90a4ae">
    <path d="M 112 370 L 136 370 L 136 408
             Q 126 418 104 418 L 90 418
             Q 98 402 112 388 Z" />
    <path d="M 228 370 L 252 370 L 252 408
             Q 242 418 220 418 L 206 418
             Q 214 402 228 388 Z" />
    <g stroke="#37474f">
      <line x1="90" y1="418" x2="94" y2="412"/><line x1="96" y1="418" x2="100" y2="412"/><line x1="102" y1="418" x2="106" y2="412"/><line x1="108" y1="418" x2="112" y2="412"/><line x1="114" y1="418" x2="118" y2="412"/><line x1="120" y1="418" x2="124" y2="412"/><line x1="126" y1="418" x2="130" y2="412"/><line x1="132" y1="418" x2="136" y2="412"/><line x1="138" y1="418" x2="142" y2="412"/><line x1="144" y1="418" x2="148" y2="412"/>
      <line x1="206" y1="418" x2="210" y2="412"/><line x1="212" y1="418" x2="216" y2="412"/><line x1="218" y1="418" x2="222" y2="412"/><line x1="224" y1="418" x2="228" y2="412"/><line x1="230" y1="418" x2="234" y2="412"/><line x1="236" y1="418" x2="240" y2="412"/><line x1="242" y1="418" x2="246" y2="412"/><line x1="248" y1="418" x2="252" y2="412"/><line x1="254" y1="418" x2="258" y2="412"/><line x1="260" y1="418" x2="264" y2="412"/>
    </g>
    <rect x="132" y="376" width="10" height="10" fill="#cfd8dc" stroke="#607d8b"/>
    <rect x="222" y="376" width="10" height="10" fill="#cfd8dc" stroke="#607d8b"/>
  </g>

</svg>